<svg width="18" height="20" viewBox="0 0 18 20" fill="none" xmlns="http://www.w3.org/2000/svg">
<path d="M14.5833 19.4443C13.7731 19.4443 13.0845 19.1608 12.5174 18.5936C11.9502 18.0265 11.6667 17.3379 11.6667 16.5277C11.6667 16.4304 11.691 16.2036 11.7396 15.8471L4.90972 11.861C4.65046 12.1041 4.35069 12.2945 4.01042 12.4322C3.67014 12.5699 3.30556 12.6388 2.91667 12.6388C2.10648 12.6388 1.41782 12.3552 0.850694 11.7881C0.283565 11.221 0 10.5323 0 9.72211C0 8.91193 0.283565 8.22327 0.850694 7.65614C1.41782 7.08901 2.10648 6.80545 2.91667 6.80545C3.30556 6.80545 3.67014 6.87431 4.01042 7.01204C4.35069 7.14978 4.65046 7.34017 4.90972 7.58322L11.7396 3.59711C11.7072 3.48369 11.6869 3.37431 11.6788 3.26899C11.6707 3.16366 11.6667 3.04619 11.6667 2.91656C11.6667 2.10637 11.9502 1.41772 12.5174 0.850586C13.0845 0.283457 13.7731 -0.000108719 14.5833 -0.000108719C15.3935 -0.000108719 16.0822 0.283457 16.6493 0.850586C17.2164 1.41772 17.5 2.10637 17.5 2.91656C17.5 3.72674 17.2164 4.4154 16.6493 4.98253C16.0822 5.54966 15.3935 5.83322 14.5833 5.83322C14.1944 5.83322 13.8299 5.76436 13.4896 5.62663C13.1493 5.4889 12.8495 5.2985 12.5903 5.05545L5.76042 9.04156C5.79282 9.15498 5.81308 9.26436 5.82118 9.36968C5.82928 9.47501 5.83333 9.59248 5.83333 9.72211C5.83333 9.85174 5.82928 9.96922 5.82118 10.0745C5.81308 10.1799 5.79282 10.2892 5.76042 10.4027L12.5903 14.3888C12.8495 14.1457 13.1493 13.9553 13.4896 13.8176C13.8299 13.6799 14.1944 13.611 14.5833 13.611C15.3935 13.611 16.0822 13.8946 16.6493 14.4617C17.2164 15.0288 17.5 15.7175 17.5 16.5277C17.5 17.3379 17.2164 18.0265 16.6493 18.5936C16.0822 19.1608 15.3935 19.4443 14.5833 19.4443ZM14.5833 17.4999C14.8588 17.4999 15.0897 17.4067 15.276 17.2204C15.4624 17.034 15.5556 16.8031 15.5556 16.5277C15.5556 16.2522 15.4624 16.0213 15.276 15.835C15.0897 15.6486 14.8588 15.5554 14.5833 15.5554C14.3079 15.5554 14.077 15.6486 13.8906 15.835C13.7043 16.0213 13.6111 16.2522 13.6111 16.5277C13.6111 16.8031 13.7043 17.034 13.8906 17.2204C14.077 17.4067 14.3079 17.4999 14.5833 17.4999ZM2.91667 10.6943C3.19213 10.6943 3.42303 10.6012 3.60938 10.4148C3.79572 10.2285 3.88889 9.99758 3.88889 9.72211C3.88889 9.44665 3.79572 9.21575 3.60938 9.02941C3.42303 8.84306 3.19213 8.74989 2.91667 8.74989C2.6412 8.74989 2.4103 8.84306 2.22396 9.02941C2.03762 9.21575 1.94444 9.44665 1.94444 9.72211C1.94444 9.99758 2.03762 10.2285 2.22396 10.4148C2.4103 10.6012 2.6412 10.6943 2.91667 10.6943ZM14.5833 3.88878C14.5833 3.88878 14.6522 3.88878 14.7899 3.88878C14.9277 3.88878 15.0897 3.79561 15.276 3.60927C15.4624 3.42292 15.5556 3.19202 15.5556 2.91656C15.5556 2.64109 15.4624 2.41019 15.276 2.22385C15.0897 2.03751 14.8588 1.94434 14.5833 1.94434C14.3079 1.94434 14.077 2.03751 13.8906 2.22385C13.7043 2.41019 13.6111 2.64109 13.6111 2.91656C13.6111 3.19202 13.7043 3.42292 13.8906 3.60927C14.077 3.79561 14.3079 3.88878 14.5833 3.88878Z" fill="#00DAF3"/>
</svg>
